<mxfile host="app.diagrams.net" modified="2023-11-07T12:35:04.439Z" agent="Mozilla/5.0 (Windows NT 10.0; Win64; x64) AppleWebKit/537.36 (KHTML, like Gecko) Chrome/119.0.0.0 Safari/537.36 Edg/119.0.0.0" version="22.0.8" etag="3PYalRNsOBGw6gIaG8ZX" type="github">
  <diagram name="PÃ¡gina-1" id="D98Pa7g3A2F45CXCFJU3">
    <mxGraphModel>
      <root>
        <mxCell id="0" />
        <mxCell id="1" parent="0" />
      </root>
    </mxGraphModel>
  </diagram>
</mxfile>
